Coordinates
version=1
nRows=17
nColumns=40
inDegrees=yes

Units are S.I. units (second, meters, Newtons, ...)
Angles are in degrees.

endheader
time	pelvis_tilt	pelvis_list	pelvis_rotation	pelvis_tx	pelvis_ty	pelvis_tz	hip_flexion_r	hip_adduction_r	hip_rotation_r	knee_angle_r	knee_angle_r_beta	ankle_angle_r	subtalar_angle_r	mtp_angle_r	hip_flexion_l	hip_adduction_l	hip_rotation_l	knee_angle_l	knee_angle_l_beta	ankle_angle_l	subtalar_angle_l	mtp_angle_l	lumbar_extension	lumbar_bending	lumbar_rotation	arm_flex_r	arm_add_r	arm_rot_r	elbow_flex_r	pro_sup_r	wrist_flex_r	wrist_dev_r	arm_flex_l	arm_add_l	arm_rot_l	elbow_flex_l	pro_sup_l	wrist_flex_l	wrist_dev_l
     19.86000000	     -2.15044465	     -6.30507020	      4.49501904	      1.03340323	      0.91810546	      0.56340882	     13.56951583	      8.17128660	     -9.33476283	     24.93195947	     24.93195947	     16.32226419	     -8.26114773	     -2.96159204	     17.35532318	    -16.27966648	      0.54051510	     52.58115627	     52.58115627	     13.03505587	    -19.07329910	     10.10418197	     -8.77704682	      6.72712507	      1.81619499	     15.00551542	    -12.67301222	     -9.76024668	     27.68145798	     46.24500027	      0.00000000	      0.00000000	      7.28023766	    -11.35579269	     -3.32000209	     47.03201103	     46.13738230	      0.00000000	      0.00000000
     19.88364286	     -1.99202133	     -6.51624720	      5.46782093	      1.03162582	      0.91519191	      0.56490590	     14.06691571	      8.64282791	     -9.08250821	     26.28839147	     26.28839147	     16.77948189	    -10.65641281	     -2.83315462	     20.33345608	    -16.68150190	      1.64172097	     56.91339168	     56.91339168	     11.61718195	    -19.32077387	     11.30491039	     -8.94579563	      6.74971503	      1.69284933	     17.67709793	    -12.78548390	     -9.76615462	     28.63849047	     46.23109305	      0.00000000	      0.00000000	      5.13939293	    -11.00875336	     -2.59306706	     45.02130797	     46.03467932	      0.00000000	      0.00000000
     19.90728571	     -1.68149847	     -6.66222551	      6.46044147	      1.02990239	      0.91248593	      0.56640668	     14.36202335	      9.14837558	     -8.62300417	     27.58718525	     27.58718525	     17.26331432	    -13.32232272	     -2.28332759	     23.04711671	    -16.82222694	      2.91603735	     60.85735228	     60.85735228	     10.98930553	    -19.45084670	     14.74518077	     -9.26912675	      6.68103002	      1.37584891	     20.80062259	    -12.85730430	     -9.73518421	     29.72155244	     46.21298061	      0.00000000	      0.00000000	      3.07835191	    -10.79834017	     -1.24048847	     42.20703097	     45.87090521	      0.00000000	      0.00000000
     19.93092857	     -1.35318684	     -6.76844262	      7.46202521	      1.02816229	      0.91004603	      0.56756482	     14.55226991	      9.45530746	     -8.74999399	     28.80894552	     28.80894552	     18.14184712	    -14.72829725	     -0.97731225	     25.62749577	    -16.69653173	      4.27095459	     64.31598149	     64.31598149	     11.54633215	    -19.52934547	     20.93203333	     -9.59269894	      6.65472396	      1.91067800	     23.58309962	    -13.52074959	     -9.79767927	     30.52543292	     46.21287937	      0.00000000	      0.00000000	      1.78449122	    -10.56298769	      1.63139331	     38.73818887	     45.57624915	      0.00000000	      0.00000000
     19.95457143	     -1.14354645	     -6.84731080	      8.44440000	      1.02649684	      0.90770531	      0.56863735	     14.75573403	      9.70965895	     -8.93722807	     29.79965817	     29.79965817	     18.66147730	    -16.08511947	     -0.58411806	     27.87694920	    -16.63520003	      5.22748486	     66.62174479	     66.62174479	     10.68232902	    -19.59855348	     21.67912067	     -9.83505468	      6.56952315	      1.70080565	     26.56690139	    -13.75256809	     -9.97180325	     32.17844763	     46.18035026	      0.00000000	      0.00000000	     -0.47715575	    -10.26184208	      2.62988967	     36.77919494	     45.43845505	      0.00000000	      0.00000000
     19.97821429	     -0.90821530	     -6.88785226	      9.37576413	      1.02490318	      0.90601069	      0.56946025	     14.82043283	      9.91210336	     -9.16940940	     30.67185033	     30.67185033	     19.78836134	    -16.80818536	      1.72668825	     29.80622486	    -16.40732597	      6.09278491	     68.10691496	     68.10691496	     10.77815055	    -19.63553275	     23.77099809	    -10.09910773	      6.49306175	      2.21449277	     29.18941686	    -14.46008009	    -10.43191758	     33.90006076	     46.15734181	      0.00000000	      0.00000000	     -1.71598101	    -10.08365677	      6.01835235	     33.49611844	     45.05321799	      0.00000000	      0.00000000
     20.00185714	     -0.79488989	     -6.82007844	     10.26820574	      1.02329867	      0.90481210	      0.56989101	     14.79627079	      9.88128691	     -9.63769655	     31.14804898	     31.14804898	     20.21985551	    -17.31550921	      2.04629305	     31.43835616	    -16.02446013	      6.67183414	     68.52378994	     68.52378994	     10.70491467	    -19.65912715	     23.83064193	    -10.30450966	      6.29398315	      2.09420371	     32.12526641	    -14.75650164	    -10.66805963	     35.71469185	     46.11914728	      0.00000000	      0.00000000	     -3.86323184	     -9.77145375	      6.93505285	     32.11704463	     44.91328863	      0.00000000	      0.00000000
     20.02550000	     -0.78041971	     -6.69441866	     11.10596476	      1.02172321	      0.90427197	      0.56994226	     14.68325798	      9.75118507	    -10.13032786	     31.31439116	     31.31439116	     20.58474134	    -17.60316772	      2.51581174	     32.80673728	    -15.48949521	      7.06261592	     67.96232322	     67.96232322	     11.08127607	    -19.66391152	     23.94726598	    -10.44537503	      6.07114065	      2.02968009	     34.99172059	    -15.11229268	    -10.90353884	     37.57142879	     46.07814416	      0.00000000	      0.00000000	     -5.81738729	     -9.41857181	      7.89562327	     30.74118173	     44.76231759	      0.00000000	      0.00000000
     20.04914286	     -0.86323979	     -6.48516726	     11.87978928	      1.02015312	      0.90443032	      0.56960867	     14.48259571	      9.48613756	    -10.63366902	     31.19089096	     31.19089096	     20.86596596	    -17.68457007	      3.13092055	     33.83778972	    -14.78375073	      7.26939230	     66.37340206	     66.37340206	     11.74671888	    -19.65374176	     23.84890642	    -10.51387570	      5.74790651	      2.03297673	     37.68131223	    -15.48319884	    -11.16446339	     39.65411234	     46.02716728	      0.00000000	      0.00000000	     -7.55712460	     -9.06040807	      9.09942292	     29.50160051	     44.57481986	      0.00000000	      0.00000000
     20.07278571	     -1.04543267	     -6.20067799	     12.58797081	      1.01851368	      0.90517501	      0.56890716	     14.22456817	      9.10186443	    -11.12801019	     30.82024744	     30.82024744	     21.01346743	    -17.63108297	      3.57796372	     34.57675358	    -13.90094213	      7.38468333	     63.83259282	     63.83259282	     12.32979344	    -19.61438929	     23.40536629	    -10.52637166	      5.41788591	      2.17212534	     40.28277411	    -15.95695718	    -11.39703606	     41.84826390	     45.96973858	      0.00000000	      0.00000000	     -9.20999449	     -8.69961677	     10.26315586	     28.60398565	     44.38609718	      0.00000000	      0.00000000
     20.09642857	     -1.34513945	     -5.88700259	     13.24289185	      1.01686094	      0.90638272	      0.56782221	     13.94344446	      8.62636363	    -11.67998948	     30.21450234	     30.21450234	     20.99365969	    -17.41632925	      3.85365778	     34.99965819	    -12.89128618	      7.48383100	     60.37336479	     60.37336479	     12.64846754	    -19.54864998	     22.33487309	    -10.46244264	      5.05380497	      2.21161020	     42.71023613	    -16.32772523	    -11.57085312	     44.52276987	     45.88907797	      0.00000000	      0.00000000	    -10.81035854	     -8.37799018	     11.69966615	     27.99412943	     44.15285022	      0.00000000	      0.00000000
     20.12007143	     -1.83701051	     -5.51680189	     13.81130880	      1.01514757	      0.90781486	      0.56642998	     13.75861914	      8.04862567	    -12.14102451	     29.45586895	     29.45586895	     20.81431289	    -17.24821593	      4.02815443	     35.22913196	    -11.69299296	      7.66675592	     56.21347532	     56.21347532	     13.02063436	    -19.42733921	     21.98286964	    -10.15681326	      4.56915085	      2.60267406	     45.17658671	    -17.07367827	    -11.68851970	     46.01561550	     45.85424677	      0.00000000	      0.00000000	    -12.10250844	     -8.00058460	     12.16221557	     27.66225901	     44.06425151	      0.00000000	      0.00000000
     20.14371429	     -2.16464688	     -5.13332825	     14.34957142	      1.01371685	      0.90968732	      0.56476883	     13.18656163	      7.45605416	    -12.80708297	     28.35682711	     28.35682711	     20.20097996	    -16.81206530	      2.73587255	     34.71562833	    -10.70133287	      7.66280437	     51.05433878	     51.05433878	     11.23160130	    -19.23832949	     16.29822089	    -10.12177693	      4.20486325	      3.37999489	     46.11147046	    -18.26863838	    -11.47335823	     51.51550906	     45.64427024	      0.00000000	      0.00000000	    -13.43144843	     -9.64181781	     23.71195637	     29.41137940	     42.66150056	      0.00000000	      0.00000000
     20.16735714	     -2.59162670	     -4.77054616	     14.78719033	      1.01231288	      0.91152885	      0.56286892	     12.71339145	      6.86412478	    -13.40393989	     27.28950064	     27.28950064	     19.85611809	    -16.19170777	      2.27780685	     34.07153803	     -9.66864703	      7.87228588	     45.65933294	     45.65933294	      9.77824284	    -18.85893629	     12.71654494	     -9.95953735	      3.80271620	      3.45535058	     48.23317743	    -18.58231726	    -11.31713525	     54.27246334	     45.55398951	      0.00000000	      0.00000000	    -14.82501747	     -9.36359321	     24.17057478	     29.80340853	     42.74663931	      0.00000000	      0.00000000
     20.19100000	     -2.97345357	     -4.45122652	     15.17481268	      1.01108483	      0.91331553	      0.56081657	     12.15395161	      6.34206090	    -13.99394279	     26.15870885	     26.15870885	     19.42509238	    -15.56129635	      1.55004447	     33.18333180	     -8.78331714	      8.14549337	     40.14868530	     40.14868530	      8.14625213	    -18.07229063	      9.40843415	     -9.82463457	      3.45660888	      3.55387742	     50.23423655	    -18.92834793	    -10.91605618	     56.76790998	     45.46887537	      0.00000000	      0.00000000	    -15.91236638	     -9.13960716	     24.95249041	     29.95000695	     42.80166888	      0.00000000	      0.00000000
     20.21464286	     -3.33434222	     -4.19954785	     15.50263980	      1.01001158	      0.91489430	      0.55863606	     11.57527448	      5.90977159	    -14.55263327	     25.05173743	     25.05173743	     19.22353224	    -14.76657299	      1.37466641	     32.36077688	     -8.07452380	      8.40826939	     35.18712605	     35.18712605	      7.72113965	    -16.22947931	      9.11612310	     -9.65522812	      3.18587348	      3.50572790	     52.45979575	    -18.86406141	    -10.68557723	     58.58970063	     45.41099142	      0.00000000	      0.00000000	    -16.87191821	     -8.83430521	     25.34879969	     29.90462585	     42.79048588	      0.00000000	      0.00000000
     20.23828571	     -3.70897365	     -3.97134819	     15.73442750	      1.00911468	      0.91615588	      0.55645470	     11.09713817	      5.53307018	    -14.89132958	     24.10870694	     24.10870694	     19.04695049	    -14.24560628	      1.37910169	     31.59714466	     -7.56682746	      8.37708187	     30.74005830	     30.74005830	      7.51853419	    -13.64642661	      9.41299172	     -9.44304496	      2.89172909	      3.70490196	     54.45521475	    -18.95210704	    -10.54371415	     59.86030348	     45.37267081	      0.00000000	      0.00000000	    -17.56629131	     -8.59546278	     25.53772536	     29.86942000	     42.77322605	      0.00000000	      0.00000000
